<?xml version="1.0" encoding="UTF-8"?>
<svg id="Capa_1" data-name="Capa 1" xmlns="http://www.w3.org/2000/svg" viewBox="0 0 972.7 972.7">
  <defs>
    <style>
      .cls-1 {
        fill: #fff;
      }

      .cls-1, .cls-2 {
        stroke: #fff;
        stroke-miterlimit: 10;
        stroke-width: 3px;
      }

      .cls-3 {
        stroke-width: 0px;
      }

      .cls-3, .cls-2 {
        fill: #434142;
      }
    </style>
  </defs>
  <circle class="cls-3" cx="486.35" cy="486.35" r="486.35"/>
  <path class="cls-1" d="M498.57,45.31l34.04,59.75,67.34,13.91c10.67,2.2,14.89,15.19,7.55,23.24l-46.3,50.83,7.58,68.34c1.2,10.83-9.84,18.85-19.77,14.36l-62.65-28.33-62.65,28.33c-9.93,4.49-20.97-3.53-19.77-14.36l7.58-68.34-46.3-50.83c-7.34-8.06-3.12-21.04,7.55-23.24l67.34-13.91,34.04-59.75c5.39-9.47,19.04-9.47,24.44,0Z"/>
  <path class="cls-1" d="M187.68,298.47l34.04,59.75,67.34,13.91c10.67,2.2,14.89,15.19,7.55,23.24l-46.3,50.83,7.58,68.34c1.2,10.83-9.84,18.85-19.77,14.36l-62.65-28.33-62.65,28.33c-9.93,4.49-20.97-3.53-19.77-14.36l7.58-68.34-46.3-50.83c-7.34-8.06-3.12-21.04,7.55-23.24l67.34-13.91,34.04-59.75c5.39-9.47,19.04-9.47,24.44,0Z"/>
  <path class="cls-1" d="M787.77,285.06l34.04,59.75,67.34,13.91c10.67,2.2,14.89,15.19,7.55,23.24l-46.3,50.83,7.58,68.34c1.2,10.83-9.84,18.85-19.77,14.36l-62.65-28.33-62.65,28.33c-9.93,4.49-20.97-3.53-19.77-14.36l7.58-68.34-46.3-50.83c-7.34-8.06-3.12-21.04,7.55-23.24l67.34-13.91,34.04-59.75c5.39-9.47,19.04-9.47,24.44,0Z"/>
  <path class="cls-2" d="M498.57,374.05l34.04,59.75,67.34,13.91c10.67,2.2,14.89,15.19,7.55,23.24l-46.3,50.83,7.58,68.34c1.2,10.83-9.84,18.85-19.77,14.36l-62.65-28.33-62.65,28.33c-9.93,4.49-20.97-3.53-19.77-14.36l7.58-68.34-46.3-50.83c-7.34-8.06-3.12-21.04,7.55-23.24l67.34-13.91,34.04-59.75c5.39-9.47,19.04-9.47,24.44,0Z"/>
  <path class="cls-1" d="M312.5,627.64l34.04,59.75,67.34,13.91c10.67,2.2,14.89,15.19,7.55,23.24l-46.3,50.83,7.58,68.34c1.2,10.83-9.84,18.85-19.77,14.36l-62.65-28.33-62.65,28.33c-9.93,4.49-20.97-3.53-19.77-14.36l7.58-68.34-46.3-50.83c-7.34-8.06-3.12-21.04,7.55-23.24l67.34-13.91,34.04-59.75c5.39-9.47,19.04-9.47,24.44,0Z"/>
  <path class="cls-1" d="M662.94,638.75l34.04,59.75,67.34,13.91c10.67,2.2,14.89,15.19,7.55,23.24l-46.3,50.83,7.58,68.34c1.2,10.83-9.84,18.85-19.77,14.36l-62.65-28.33-62.65,28.33c-9.93,4.49-20.97-3.53-19.77-14.36l7.58-68.34-46.3-50.83c-7.34-8.06-3.12-21.04,7.55-23.24l67.34-13.91,34.04-59.75c5.39-9.47,19.04-9.47,24.44,0Z"/>
</svg>